<svg xmlns="http://www.w3.org/2000/svg" viewBox="0 0 1440 520" preserveAspectRatio="xMidYMax slice">

  <!-- Layer 1: farthest, barely visible against cream bg -->
  <path d="M0,195 C90,178 180,192 270,180 C360,168 450,185 540,174 C630,163 720,180 810,170 C900,160 990,176 1080,165 C1170,154 1260,172 1350,162 C1400,156 1440,165 1440,165 L1440,520 L0,520 Z" fill="hsl(38, 20%, 87%)"/>

  <!-- Layer 2 -->
  <path d="M0,240 C110,215 220,238 330,220 C440,202 550,232 660,215 C770,198 880,228 990,210 C1100,192 1220,222 1340,205 C1400,196 1440,210 1440,210 L1440,520 L0,520 Z" fill="hsl(40, 14%, 79%)"/>

  <!-- Layer 3 -->
  <path d="M0,300 C100,268 200,295 300,272 C400,249 500,285 600,260 C700,235 800,275 900,250 C1000,225 1110,265 1220,242 C1330,219 1400,252 1440,244 L1440,520 L0,520 Z" fill="hsl(48, 9%, 68%)"/>

  <!-- Layer 4 -->
  <path d="M0,368 C130,332 260,362 390,338 C520,314 650,352 780,326 C910,300 1040,342 1170,316 C1300,290 1390,325 1440,318 L1440,520 L0,520 Z" fill="hsl(80, 8%, 54%)"/>

  <!-- Layer 5: closest, darkest olive -->
  <path d="M0,438 C160,398 320,435 480,408 C640,381 800,425 960,396 C1120,367 1280,408 1380,388 C1420,380 1440,392 1440,392 L1440,520 L0,520 Z" fill="hsl(92, 11%, 40%)"/>

</svg>
